<?xml version="1.0" standalone="no"?>
<!DOCTYPE svg PUBLIC "-//W3C//DTD SVG 20010904//EN"
 "http://www.w3.org/TR/2001/REC-SVG-20010904/DTD/svg10.dtd">
<svg version="1.0" xmlns="http://www.w3.org/2000/svg"
 width="354.000000pt" height="354.000000pt" viewBox="0 0 354.000000 354.000000"
 preserveAspectRatio="xMidYMid meet">
<metadata>
Created by potrace 1.11, written by Peter Selinger 2001-2013
</metadata>
<g transform="translate(0.000000,354.000000) scale(0.100000,-0.100000)"
fill="#000000" stroke="none">
<path d="M2291 3317 c-16 -41 -131 -149 -221 -206 -150 -96 -161 -104 -204
-153 -24 -26 -51 -64 -61 -83 l-17 -37 -19 40 c-31 61 -118 141 -220 202 -89
53 -226 173 -261 230 -14 23 -17 24 -41 11 -15 -8 -35 -22 -45 -32 -11 -9 -33
-24 -50 -33 -18 -9 -32 -23 -32 -31 0 -41 47 -103 127 -164 51 -39 246 -141
270 -141 10 0 36 -11 58 -25 45 -28 41 -30 -30 -11 -57 15 -158 13 -225 -5
-84 -23 -189 -102 -243 -184 -64 -98 -86 -249 -51 -366 21 -69 22 -64 -20 -68
-15 -1 -15 -29 -2 -111 4 -25 9 -56 12 -70 26 -168 98 -424 155 -547 10 -24
19 -45 19 -48 0 -17 120 -241 167 -315 150 -230 306 -390 514 -526 174 -114
424 -211 642 -250 l37 -6 0 935 c0 606 -3 937 -10 939 -6 2 -2 29 10 68 89
291 -138 578 -447 565 -32 -2 -78 -10 -103 -18 -24 -9 -46 -14 -48 -12 -6 6
84 55 101 55 30 0 232 109 292 157 59 47 130 138 120 153 -4 7 -122 87 -153
104 -7 5 -16 -2 -21 -17z"/>
<path d="M970 1108 c0 -678 -1 -663 47 -753 45 -86 120 -141 203 -150 l55 -7
327 165 326 165 -51 35 c-231 153 -523 446 -663 664 -94 148 -171 318 -199
447 -11 50 -22 76 -31 76 -12 0 -14 -98 -14 -642z"/>
</g>
</svg>
